<mxfile host="app.diagrams.net" modified="2023-08-13T22:37:46.054Z" agent="Mozilla/5.0 (Windows NT 10.0; Win64; x64) AppleWebKit/537.36 (KHTML, like Gecko) Chrome/115.0.0.0 Safari/537.36 Edg/115.0.1901.200" version="21.6.5" etag="ZKlGve-lOxj4H-zVbYMP" type="github">
  <diagram name="Page-1" id="B7FohNAEnaXv2hVeiH6k">
    <mxGraphModel>
      <root>
        <mxCell id="0" />
        <mxCell id="1" parent="0" />
      </root>
    </mxGraphModel>
  </diagram>
</mxfile>
